<svg width="24" height="24" viewBox="0 0 24 24" fill="none" xmlns="http://www.w3.org/2000/svg">
<path fill-rule="evenodd" clip-rule="evenodd" d="M17.2151 18.5993C17.2151 19.3591 17.0472 19.897 16.6972 20.2356C16.35 20.5743 15.8093 20.7365 15.0438 20.7365H9.44906C8.68355 20.7365 8.14001 20.5743 7.79567 20.2356C7.44565 19.897 7.27775 19.3591 7.27775 18.5993V7.56631C7.27775 6.82641 7.44565 6.2971 7.79852 5.94991C8.15139 5.59704 8.69209 5.4263 9.44906 5.4263H15.0467C15.815 5.4263 16.3557 5.59419 16.7029 5.93569C17.0501 6.28002 17.218 6.81218 17.218 7.56631L17.2151 18.5993ZM10.7923 3.71315C10.7923 3.58793 10.8065 3.42573 10.8805 3.35458C10.9545 3.28059 11.1224 3.26352 11.2476 3.26352H13.4303C13.5356 3.26352 13.7262 3.2749 13.7974 3.34889C13.8742 3.42288 13.8856 3.60785 13.8856 3.71315V4.16562H10.7923V3.71315ZM17.6079 5.04496C17.0302 4.47581 16.2277 4.19408 15.1662 4.17131V3.71315C15.1662 3.18384 15.0125 2.76266 14.7052 2.45817C14.4007 2.15367 13.971 2 13.4303 2H11.2476C10.7097 2 10.28 2.15652 9.97268 2.46386C9.66534 2.76836 9.51167 3.18668 9.51167 3.71315V4.16562H9.44906C8.33352 4.16562 7.49402 4.45874 6.88788 5.06204C6.29027 5.6568 6 6.47638 6 7.56631V18.5993C6 19.7149 6.29311 20.543 6.89641 21.132C7.49402 21.7154 8.33068 22 9.45191 22H15.0495C16.1707 22 17.0074 21.7154 17.605 21.132C18.2083 20.5401 18.5014 19.712 18.5014 18.5993V7.56631C18.4957 6.46215 18.2055 5.63688 17.6079 5.04496Z" fill="#86888C"/>
</svg>
