<svg width="24" height="24" viewBox="0 0 24 24" fill="none" xmlns="http://www.w3.org/2000/svg">
<path fill-rule="evenodd" clip-rule="evenodd" d="M17.6152 18.7411C17.6152 19.5808 17.4188 20.1785 17.0147 20.5655C16.6133 20.9526 16.0014 21.1405 15.1476 21.1405H9.34994C8.49609 21.1405 7.88416 20.9526 7.48285 20.5655C7.0787 20.1756 6.88231 19.5808 6.88231 18.7411V7.47033C6.88231 6.65348 7.0787 6.06717 7.48285 5.66871C7.8927 5.2674 8.50178 5.07101 9.34994 5.07101H15.1476C16.0043 5.07101 16.6162 5.2617 17.0175 5.65448C17.4188 6.04725 17.6152 6.63925 17.6152 7.47033V18.7411ZM10.5197 3.53408C10.5197 3.16977 10.6392 3.05308 10.6762 3.01608C10.7161 2.97623 10.8356 2.85954 11.2142 2.85954H13.474C13.8611 2.85954 13.975 2.97339 14.0148 3.01039C14.0518 3.04739 14.1685 3.16124 14.1685 3.53408V4.21147H10.5197V3.53408ZM17.6437 5.04824C17.0659 4.4847 16.249 4.21147 15.1447 4.21147H15.0508V3.53408C15.0508 3.05023 14.9113 2.67169 14.6381 2.40416C14.3649 2.13662 13.9721 2 13.474 2H11.2142C10.7161 2 10.3262 2.13946 10.0472 2.40985C9.77401 2.68023 9.63455 3.05877 9.63455 3.53124V4.20862H9.34994C8.25416 4.20862 7.44016 4.48755 6.85385 5.06247C6.27892 5.62886 6 6.41725 6 7.46748V18.7383C6 19.8198 6.28462 20.6168 6.86239 21.1746C7.43731 21.7296 8.25132 22 9.34994 22H15.1476C16.2462 22 17.0602 21.7296 17.6351 21.1746C18.2157 20.6168 18.4975 19.8198 18.4975 18.7383V7.46748C18.4975 6.40017 18.2186 5.60894 17.6437 5.04824Z" fill="#86888C"/>
</svg>
