<svg width="24" height="24" viewBox="0 0 24 24" fill="none" xmlns="http://www.w3.org/2000/svg">
<path fill-rule="evenodd" clip-rule="evenodd" d="M7.11824 22C6.80507 22 6.50654 21.8691 6.29581 21.6443C5.87729 21.189 5.90655 20.4947 6.3602 20.0735L15.2283 11.9263L6.36606 3.93567C5.90948 3.51735 5.87729 2.82301 6.29289 2.36485C6.69385 1.92093 7.3875 1.8754 7.84407 2.26526C7.85285 2.27379 7.86163 2.27948 7.87041 2.28802L17.6341 11.0954C17.8682 11.306 18 11.6019 18 11.9121C18.0029 12.2223 17.8741 12.5211 17.6429 12.7345L7.87627 21.7041C7.6725 21.8944 7.40078 22.0005 7.11824 22Z" fill="#86888C"/>
</svg>
