<svg width="24" height="24" viewBox="0 0 24 24" fill="none" xmlns="http://www.w3.org/2000/svg">
<path fill-rule="evenodd" clip-rule="evenodd" d="M16.8818 1.99949C17.1949 1.99949 17.4935 2.13039 17.7042 2.3552C18.1227 2.81051 18.0934 3.50486 17.6398 3.92602L8.7717 12.0732L17.6339 20.0638C18.0905 20.4822 18.1227 21.1765 17.7071 21.6347C17.3061 22.0786 16.6125 22.1241 16.1559 21.7343C16.1471 21.7257 16.1384 21.72 16.1296 21.7115L6.36589 12.9041C6.13175 12.6935 6.00005 12.3976 6.00005 12.0874C5.99712 11.7772 6.1259 11.4784 6.35711 11.265L16.1237 2.29544C16.3275 2.10513 16.5992 1.99905 16.8818 1.99949Z" fill="#86888C"/>
</svg>
