<svg width="24" height="24" viewBox="0 0 24 24" fill="none" xmlns="http://www.w3.org/2000/svg">
<path d="M16.5403 19H6.07196C3.82633 19 2 17.1709 2 14.928C2 14.0191 2.31518 13.1495 2.91176 12.4123C3.44925 11.7453 4.17809 11.2501 4.96603 11.0109C5.0195 9.37588 5.59638 7.88724 6.60663 6.80101C7.68442 5.63879 9.19839 5 10.8643 5C13.2563 5.00281 15.44 6.37045 16.484 8.52603H16.5431C19.4332 8.52603 21.7829 10.8758 21.7829 13.7658C21.7829 16.6559 19.4275 19 16.5403 19ZM10.8615 6.12281C10.1721 6.12281 9.5192 6.25226 8.92543 6.50834C8.35699 6.75317 7.84764 7.11337 7.42834 7.56643C6.56161 8.5007 6.08603 9.80925 6.08603 11.2557C6.08603 11.5343 5.95658 11.9001 5.34312 12.0718C4.74935 12.2406 4.19498 12.6121 3.78412 13.1186C3.48583 13.4901 3.12563 14.1091 3.12563 14.928C3.12844 16.5546 4.44543 17.8716 6.07196 17.8744H16.5403C18.8084 17.8744 20.6545 16.0283 20.6545 13.7602C20.6545 11.4921 18.8084 9.64603 16.5403 9.64603C16.4896 9.64603 16.4306 9.64884 16.3715 9.65166C16.3292 9.65447 16.2898 9.65447 16.2476 9.65729C16.0957 9.66291 15.7186 9.62352 15.5329 9.15357L15.5301 9.14513C14.7055 7.30754 12.8792 6.12563 10.8615 6.12281Z" fill="#86888C"/>
</svg>
