<svg width="24" height="24" viewBox="0 0 24 24" fill="none" xmlns="http://www.w3.org/2000/svg">
<path d="M16.8638 19H5.94543C3.77031 19 2 17.2297 2 15.0546C2 14.1765 2.30503 13.3356 2.88373 12.62C3.42537 11.9501 4.15801 11.4598 4.95052 11.2374C4.99898 11.226 5.04459 11.2089 5.09021 11.1861C5.10731 7.59988 7.56465 5 10.9428 5C13.3916 5.00285 15.6094 6.44248 16.6101 8.67461L16.6158 8.68601L16.65 8.68316C16.7212 8.68031 16.7925 8.67746 16.8666 8.67746C19.7117 8.67746 22.0293 10.9923 22.0293 13.8402C22.0293 16.688 19.7117 19 16.8638 19ZM10.9428 5.57015C9.44899 5.57015 8.10059 6.13745 7.13989 7.16942C6.17919 8.20138 5.6575 9.63816 5.6575 11.2232C5.6575 11.628 5.24129 11.7477 5.10446 11.7848C4.42313 11.9758 3.79312 12.4005 3.3256 12.9792C2.82957 13.5921 2.57015 14.3105 2.57015 15.0546C2.573 16.919 4.08104 18.427 5.94543 18.4299H16.8638C19.3952 18.4299 21.4563 16.3688 21.4563 13.8373C21.4563 11.3058 19.3981 9.24476 16.8666 9.24476C16.8039 9.24476 16.744 9.24761 16.6756 9.25046C16.6329 9.25331 16.593 9.25331 16.553 9.25616C16.3421 9.26186 16.1881 9.15068 16.0969 8.92262C16.0941 8.91692 16.0941 8.91122 16.0912 8.90552C15.179 6.87864 13.1664 5.573 10.9428 5.57015Z" fill="#86888C"/>
</svg>
