<svg width="24" height="24" viewBox="0 0 24 24" fill="none" xmlns="http://www.w3.org/2000/svg">
<path d="M15.7876 22H8.21238C7.11569 22 6.3238 21.758 5.79488 21.2569C5.25998 20.753 5 19.9929 5 18.9395V5.0605C5 4.03559 5.25998 3.28683 5.79189 2.77438C6.33276 2.25338 7.12465 2 8.21238 2H15.7876C16.8873 2 17.6792 2.24769 18.2111 2.7573C18.743 3.2669 19 4.01851 19 5.0605V18.9395C19 19.9929 18.74 20.7502 18.2051 21.2569C17.6762 21.758 16.8843 22 15.7876 22ZM8.21238 2.5694C7.292 2.5694 6.64056 2.76584 6.21622 3.17295C5.79787 3.57438 5.59466 4.19217 5.59466 5.0605V18.9395C5.59466 20.7103 6.35368 21.4306 8.20939 21.4306H15.7846C17.6433 21.4306 18.3994 20.7103 18.3994 18.9395V5.0605C18.3994 4.17509 18.1991 3.5516 17.7868 3.15872C17.3744 2.76584 16.72 2.5694 15.7876 2.5694H8.21238Z" fill="#86888C"/>
<path d="M12.0075 17.926C11.4696 17.926 11.12 18.1964 11.12 18.7744C11.12 19.0534 11.2006 19.2584 11.3441 19.3979C11.4995 19.5488 11.7266 19.6228 12.0075 19.6228C12.2884 19.6228 12.5155 19.5488 12.6709 19.3979C12.8143 19.2584 12.892 19.0534 12.892 18.7744C12.892 18.1964 12.5454 17.926 12.0075 17.926Z" fill="#86888C"/>
</svg>
