<svg width="24" height="24" viewBox="0 0 24 24" fill="none" xmlns="http://www.w3.org/2000/svg">
<path d="M18.1522 2.84519C17.5731 2.27604 16.7194 2 15.5373 2H8.46269C6.16418 2 5 3.12408 5 5.34377V18.6562C5 20.9072 6.13134 22 8.46269 22H15.5373C17.8687 22 19 20.9072 19 18.6562V5.34377C19 4.21969 18.7224 3.40296 18.1522 2.84519ZM12.8806 19.325C12.6716 19.527 12.3701 19.6352 12.006 19.6352C11.6418 19.6352 11.3373 19.527 11.1313 19.325C10.9254 19.1229 10.8239 18.8469 10.8239 18.5026C10.8239 17.794 11.2657 17.3699 12.009 17.3699C12.7522 17.3699 13.191 17.794 13.191 18.5026C13.1881 18.8469 13.0836 19.1229 12.8806 19.325Z" fill="#86888C"/>
</svg>
