<svg width="24" height="24" viewBox="0 0 24 24" fill="none" xmlns="http://www.w3.org/2000/svg">
<path fill-rule="evenodd" clip-rule="evenodd" d="M19.7256 19.6725C20.3971 18.9697 20.73 18.2812 20.7157 17.6182C20.7044 16.9837 20.3715 16.335 19.7284 15.6891C19.4837 15.4387 19.2077 15.2196 18.9061 15.0404C18.3655 14.7075 17.8306 14.5908 17.3042 14.6762C16.7551 14.7701 16.1974 15.0916 15.6539 15.635C15.5202 15.7659 15.3979 15.9082 15.2812 16.0533C15.23 16.1187 15.1645 16.1728 15.0934 16.2126C14.6723 16.4516 14.0776 16.2923 13.2297 15.7119C12.3477 15.1058 11.3291 14.1185 10.6405 13.4328L10.558 13.3503C9.87227 12.6674 8.88779 11.6516 8.2789 10.7639C7.69846 9.91598 7.53912 9.32415 7.77528 8.89736C7.81511 8.82338 7.86917 8.76078 7.93746 8.70957C8.11103 8.57299 8.20777 8.48479 8.35572 8.33683C8.89918 7.79338 9.22354 7.23854 9.31459 6.68655C9.40564 6.15448 9.28898 5.63379 8.95893 5.10172C8.77683 4.79442 8.55489 4.51274 8.30166 4.26519C7.66147 3.625 7.01274 3.2921 6.37823 3.28072C5.72097 3.26365 5.02671 3.59939 4.32392 4.27089C4.15889 4.43022 3.96541 4.66354 3.74348 4.97368C3.08621 5.91832 3.13174 7.40641 3.84306 9.18758C4.63975 11.1878 6.20467 13.3873 8.3671 15.5497L8.3984 15.5838L8.44393 15.6294C10.6092 17.7918 12.8086 19.3567 14.8089 20.1534C16.573 20.8562 18.0895 20.9017 18.9943 20.2757C19.1451 20.1676 19.4951 19.9144 19.7256 19.6725ZM20.6332 14.7871C21.521 15.6749 21.9791 16.6167 21.9961 17.5955C22.016 18.6055 21.5636 19.6042 20.6503 20.5574C20.3402 20.8818 19.9333 21.1777 19.7796 21.2887C19.0797 21.7752 18.283 22 17.3554 22C16.4392 22 15.4235 21.7809 14.3337 21.3456C12.1713 20.4835 9.8239 18.8218 7.53912 16.537L7.4623 16.4602C7.43953 16.4403 7.41677 16.4204 7.3997 16.3947C5.14621 14.127 3.50447 11.8024 2.65373 9.6599C1.77737 7.46901 1.78306 5.55696 2.66511 4.27658C2.79884 4.08879 3.10613 3.66483 3.43903 3.34616C4.39505 2.43282 5.38807 1.9861 6.401 2.00033C7.37694 2.02025 8.32158 2.47834 9.20931 3.36323C9.53653 3.6876 9.8239 4.0518 10.0601 4.44729C10.5438 5.22975 10.723 6.06343 10.5808 6.90564C10.4413 7.72224 10.0003 8.51039 9.26338 9.24448C9.18371 9.327 9.09835 9.40382 9.01299 9.48064C9.0642 9.5973 9.16094 9.7794 9.33735 10.0383C9.88365 10.8379 10.8141 11.7967 11.4685 12.4455L11.551 12.528C12.1997 13.1767 13.1614 14.11 13.9581 14.6563C14.2171 14.8327 14.3992 14.9294 14.5158 14.9806C14.5869 14.901 14.6609 14.8213 14.7548 14.7302C15.4889 13.9961 16.2771 13.5523 17.0937 13.4129C17.9387 13.2706 18.7696 13.4498 19.5662 13.9421C19.9191 14.1526 20.2833 14.4372 20.6332 14.7871ZM14.1118 8.60998C14.0406 8.66404 14.0264 8.69249 14.0207 8.72379C14.015 8.75794 14.0264 8.79492 14.0492 8.82053L14.9881 9.86761C15.0394 9.93305 15.0678 9.95866 15.1133 9.9615C15.1219 9.95296 15.2072 9.91882 15.2158 9.91029L17.7168 7.76208C17.9786 7.53445 18.3769 7.56006 18.6102 7.81614L19.0854 8.33968L19.8593 4.71475L19.8479 4.71191L16.1945 4.99644L16.6526 5.50859C16.8888 5.77321 16.866 6.17724 16.6043 6.4134L16.6014 6.41625L14.1118 8.60998ZM14.0008 10.6785L13.0989 9.67982C12.581 9.10506 12.6265 8.22017 13.2013 7.70233C13.2354 7.67103 13.2724 7.63973 13.3123 7.61128L15.2727 5.88417L15.1589 5.75898C14.8373 5.40047 14.7434 4.91392 14.9113 4.48713C15.082 4.06033 15.4861 3.77011 15.9698 3.73312L19.7683 3.44006L19.8707 3.43721C20.2406 3.43721 20.5934 3.5937 20.8324 3.86685C21.097 4.16845 21.1994 4.57533 21.1141 4.97652L20.3117 8.72379C20.2121 9.18758 19.8792 9.54893 19.4382 9.66559C19 9.78509 18.5305 9.63998 18.2119 9.28432L18.0781 9.13636L16.0494 10.8805C15.7678 11.1423 15.3893 11.2703 15.0052 11.2334C14.6069 11.2021 14.2427 10.9972 14.0008 10.6785Z" fill="#86888C"/>
</svg>
