<svg width="24" height="24" viewBox="0 0 24 24" fill="none" xmlns="http://www.w3.org/2000/svg">
<path fill-rule="evenodd" clip-rule="evenodd" d="M21.7486 15.4897C22.5653 16.3065 22.9893 17.1574 23.0036 18.0196C23.0206 18.9132 22.5995 19.8153 21.7571 20.7003C21.4612 21.0105 21.0485 21.3065 20.9119 21.4061C20.9034 21.4118 20.8977 21.4175 20.8948 21.4175C20.8863 21.4232 20.8778 21.4288 20.8692 21.4374C20.2972 21.8329 19.5716 22.0293 18.7321 22.0293C17.8527 22.0293 16.8453 21.813 15.7554 21.3776C13.5329 20.4926 11.1026 18.7681 8.72638 16.3918L8.72069 16.3862L8.6467 16.3122C8.64385 16.3122 8.64385 16.3093 8.64101 16.3093C6.2648 13.9331 4.54026 11.5028 3.65523 9.28029C2.8072 7.15451 2.78728 5.33892 3.59547 4.16646C3.60116 4.15793 3.60686 4.14939 3.61539 4.14085C3.61824 4.13801 3.62393 4.13231 3.62678 4.12378C3.72353 3.98718 4.02234 3.57739 4.33252 3.27859C5.20048 2.45047 6.08267 2.0293 6.95632 2.0293H7.01038C7.87265 2.04637 8.72353 2.46754 9.54027 3.28428C9.87037 3.61439 10.1407 3.95588 10.3399 4.30021C10.7782 5.00596 10.9375 5.73732 10.8123 6.46868C10.6871 7.20004 10.2802 7.91433 9.59718 8.59731C9.42074 8.77375 9.30122 8.87904 9.09348 9.04694C9.02803 9.16646 9.06787 9.54495 9.59718 10.319C10.2119 11.2154 11.2363 12.2712 11.9535 12.9912L12.0388 13.0765C12.756 13.7937 13.8146 14.8181 14.711 15.4328C15.3115 15.8455 15.6729 15.9593 15.8635 15.9593C15.9176 15.9593 15.9575 15.9508 15.9831 15.9337C16.151 15.7259 16.2563 15.6064 16.4327 15.43C17.1157 14.747 17.8328 14.3372 18.5613 14.2148C18.7235 14.1864 18.8829 14.175 19.0423 14.175C19.6114 14.175 20.1777 14.3486 20.7298 14.6901C21.077 14.8893 21.4185 15.1568 21.7486 15.4897ZM15.5904 10.2706L14.6256 9.19777C14.4748 9.03271 14.4037 8.80221 14.4321 8.57454C14.4577 8.36111 14.5716 8.17045 14.7423 8.04523L17.3035 5.79139L16.7429 5.16817C16.5778 4.98604 16.5295 4.74984 16.612 4.54495C16.6945 4.33721 16.8909 4.20061 17.1356 4.18354L21.0428 3.87904C21.0599 3.87619 21.0798 3.87619 21.0969 3.87619C21.2904 3.87619 21.464 3.95303 21.5892 4.09532C21.723 4.24899 21.777 4.45958 21.7315 4.66732L20.9062 8.51763C20.855 8.75667 20.6956 8.93311 20.4822 8.99003C20.4338 9.00141 20.3855 9.00994 20.3371 9.00994C20.1692 9.00994 20.0041 8.93311 19.8789 8.79367L19.3126 8.16475L16.74 10.3759C16.6006 10.5097 16.4128 10.5865 16.2136 10.5865C16.1908 10.5865 16.1709 10.5837 16.1481 10.5837C15.929 10.5666 15.7269 10.4527 15.5904 10.2706Z" fill="#86888C"/>
</svg>
