<svg width="24" height="24" viewBox="0 0 24 24" fill="none" xmlns="http://www.w3.org/2000/svg">
<path fill-rule="evenodd" clip-rule="evenodd" d="M21.0844 20.0251C21.8158 19.2596 22.1772 18.497 22.1658 17.7542C22.1516 17.0399 21.7874 16.32 21.0844 15.617C20.8198 15.3467 20.521 15.1105 20.1966 14.917C19.599 14.547 18.9985 14.4133 18.3952 14.5129C17.7834 14.6153 17.1715 14.9711 16.5796 15.563C16.4373 15.7024 16.3036 15.8532 16.1784 16.0126C16.1442 16.0553 16.1044 16.0894 16.0588 16.1151C15.7145 16.3114 15.1738 16.1435 14.3969 15.6114C13.5119 15.0052 12.4789 14.0035 11.7817 13.3034L11.6991 13.2238C10.9962 12.5209 9.99453 11.485 9.39123 10.6057C8.86192 9.82878 8.69686 9.28524 8.89037 8.94375C8.91599 8.89537 8.95298 8.85268 8.99567 8.81853C9.18064 8.6734 9.28593 8.57664 9.44245 8.42013C10.0344 7.82821 10.3872 7.21637 10.4925 6.60453C10.595 6.00408 10.4612 5.40362 10.0941 4.8174C9.89777 4.48729 9.65873 4.18564 9.38554 3.91814C8.68263 3.21524 7.96266 2.85098 7.24837 2.83675H7.20569C6.47717 2.83675 5.72874 3.20101 4.9803 3.91814C4.7498 4.14865 4.53921 4.39907 4.35424 4.66942C3.63426 5.70812 3.66841 7.31028 4.42823 9.21409C5.25634 11.2858 6.87273 13.5653 9.10381 15.7992L9.11804 15.8134L9.18918 15.8846C11.4316 18.127 13.7111 19.7491 15.7885 20.5744C17.6752 21.3285 19.2973 21.3655 20.299 20.674C20.4612 20.5573 20.834 20.2869 21.0844 20.0251ZM21.6735 15.0251C22.5358 15.8874 22.9826 16.8009 22.9996 17.7371C23.0167 18.7075 22.5785 19.6694 21.6877 20.6C21.3833 20.9187 20.9792 21.2118 20.8283 21.3199C20.8027 21.3399 20.7771 21.3569 20.7515 21.374C20.1567 21.7867 19.3884 22.0029 18.4891 22.0029C17.5813 22.0029 16.5711 21.7838 15.4812 21.3484C13.2985 20.4804 10.9194 18.7929 8.6058 16.4765L8.54035 16.411L8.52327 16.3939C6.20682 14.0775 4.52214 11.6984 3.65133 9.51859C2.78622 7.34728 2.78338 5.46908 3.63995 4.22548C3.7737 4.04335 4.07535 3.62503 4.40261 3.31199C5.33033 2.42412 6.28366 2.0001 7.2626 2.00294C8.19886 2.02002 9.11234 2.4668 9.97461 3.32907C10.3161 3.6734 10.5978 4.02912 10.8056 4.38769C11.2751 5.14466 11.4459 5.94147 11.3093 6.74682C11.1755 7.5351 10.743 8.29776 10.0287 9.01489C9.912 9.13441 9.78963 9.24824 9.66158 9.35354C9.69288 9.47306 9.79248 9.71495 10.0771 10.1333C10.6405 10.9557 11.6081 11.9546 12.2854 12.6318L12.3679 12.7144C13.0452 13.3888 14.0384 14.3564 14.8665 14.9255C15.2819 15.2101 15.5267 15.3069 15.6462 15.341C15.7572 15.2101 15.8511 15.1077 15.9877 14.9739C16.7048 14.2568 17.4675 13.8271 18.2529 13.6933C19.0611 13.5567 19.8551 13.7303 20.6206 14.2056C20.9735 14.4048 21.332 14.6836 21.6735 15.0251ZM15.0059 8.35183C14.8978 8.43436 14.8465 8.51973 14.8352 8.61933C14.8209 8.72178 14.8522 8.82707 14.9205 8.90675L15.8824 9.97676C15.9706 10.0906 16.0645 10.1418 16.167 10.1503C16.2637 10.1589 16.3605 10.1276 16.4316 10.0593L19.0127 7.83959C19.1835 7.69161 19.4424 7.70584 19.5933 7.87659L20.1596 8.50265C20.1909 8.53965 20.2649 8.59656 20.3417 8.57664C20.4271 8.55103 20.4555 8.45997 20.4641 8.42297L21.2837 4.58689C21.3036 4.51575 21.2865 4.43891 21.2381 4.382C21.1926 4.33362 21.1271 4.30516 21.0617 4.30801H21.0418L17.1488 4.60397C17.1004 4.60681 17.0122 4.62673 16.9809 4.70357C16.9496 4.78325 17.0008 4.85724 17.0321 4.89139L17.5899 5.51176C17.7435 5.68535 17.7293 5.95001 17.5557 6.10368C17.5586 6.10653 15.0059 8.35183 15.0059 8.35183ZM15.2421 10.5061L14.303 9.46452C13.8619 8.9722 13.9018 8.21523 14.3941 7.77414C14.4225 7.74853 14.4538 7.72292 14.4851 7.70015L16.6906 5.75934L16.4117 5.452C16.1442 5.1532 16.0645 4.7491 16.204 4.39623C16.3434 4.0462 16.6792 3.80715 17.0805 3.77585L20.9706 3.4742L21.0588 3.47135C21.3719 3.47135 21.6621 3.60226 21.8642 3.83277C22.0862 4.08604 22.1715 4.42468 22.0975 4.76333L21.278 8.59941C21.1954 8.98643 20.9194 9.28808 20.5551 9.38484C20.1823 9.47875 19.7896 9.35354 19.5364 9.06611L19.2489 8.73885L16.9951 10.6768C16.7561 10.9016 16.4288 11.0155 16.0987 10.9813C15.7572 10.9529 15.447 10.7793 15.2421 10.5061Z" fill="#86888C"/>
</svg>
