<svg width="24" height="24" viewBox="0 0 24 24" fill="none" xmlns="http://www.w3.org/2000/svg">
<path d="M22 12C22 17.5228 17.5228 22 12 22C6.47715 22 2 17.5228 2 12C2 6.47715 6.47715 2 12 2C17.5228 2 22 6.47715 22 12ZM3.667 12C3.667 16.6022 7.39781 20.333 12 20.333C16.6022 20.333 20.333 16.6022 20.333 12C20.333 7.39781 16.6022 3.667 12 3.667C7.39781 3.667 3.667 7.39781 3.667 12Z" fill="url(#paint0_angular_2846_41137)"/>
<circle cx="21.1667" cy="12" r="0.833333" fill="white"/>
<defs>
<radialGradient id="paint0_angular_2846_41137" cx="0" cy="0" r="1" gradientUnits="userSpaceOnUse" gradientTransform="translate(12 12) scale(10)">
<stop stop-color="#80CEF9"/>
<stop offset="0.5" stop-color="white"/>
<stop offset="1" stop-color="white"/>
</radialGradient>
</defs>
</svg>
