<svg width="35" height="28" viewBox="0 0 35 28" fill="none" xmlns="http://www.w3.org/2000/svg">
<mask id="mask0_545_42390" style="mask-type:alpha" maskUnits="userSpaceOnUse" x="0" y="0" width="35" height="28">
<path fill-rule="evenodd" clip-rule="evenodd" d="M0.306641 0H34.5015V27.4285H0.306641V0Z" fill="white"/>
</mask>
<g mask="url(#mask0_545_42390)">
<path fill-rule="evenodd" clip-rule="evenodd" d="M0.890038 9.97679C0.308144 12.5588 0.0831867 15.2501 0.581506 18.4531C1.04082 21.408 1.85464 23.9582 2.4038 25.3636C2.59254 25.8481 2.8854 26.353 3.11175 26.6635C3.76295 27.5572 4.84664 27.5001 5.30143 27.2565C5.79871 26.9918 6.36841 26.3507 6.16226 24.8878C6.06232 24.181 5.77468 23.147 5.61275 22.5717C5.11617 20.8078 4.45349 18.6796 4.39568 17.1638C4.31907 15.1355 5.05523 14.8704 5.54415 14.7531C6.36563 14.5568 7.05547 15.5371 7.71049 16.7663C8.49193 18.2326 9.83122 20.8316 10.9236 22.8164C11.9098 24.608 13.73 26.5262 16.6531 26.3953C19.6336 26.2611 21.8302 25.0259 22.9613 21.1387C23.8082 18.2296 24.3859 16.0572 25.3146 13.8307C26.3823 11.271 27.8073 9.90115 29.0069 10.3198C30.1202 10.7079 30.3985 11.8905 30.412 13.6287C30.4242 15.1661 30.2602 16.8612 30.1328 18.1063C30.0861 18.5578 30.0025 19.4674 30.0373 19.9716C30.1042 20.9636 30.4998 21.9549 31.5281 22.1133C32.6243 22.282 33.5036 21.3312 33.8543 20.1815C33.9932 19.7284 34.1113 19.0348 34.175 18.5431C34.4968 16.0583 34.5804 14.3885 34.4355 11.8462C34.2656 8.87395 33.73 6.16374 32.7953 3.81737C31.9021 1.57424 30.466 0.135938 28.6239 0.00924004C26.5853 -0.131452 24.2463 1.33787 23.0198 4.18763C21.888 6.81425 20.9833 9.51084 20.4342 10.8875C19.8773 12.2834 19.0597 13.1427 17.8012 13.2868C16.2631 13.4631 14.938 12.2502 13.9672 10.5214C13.121 9.01388 11.4439 6.14407 10.5465 5.18003C9.70307 4.27424 8.74021 3.14076 6.73545 3.17518C5.15134 3.20241 2.22655 4.0511 0.890038 9.97679Z" fill="white"/>
</g>
</svg>
