<svg width="312" height="366" viewBox="0 0 312 366" fill="none" xmlns="http://www.w3.org/2000/svg">
<rect width="312" height="366" fill="#133A53"/>
<mask id="mask0_620_17949" style="mask-type:alpha" maskUnits="userSpaceOnUse" x="0" y="0" width="312" height="366">
<rect width="312" height="366" fill="#D9D9D9"/>
</mask>
<g mask="url(#mask0_620_17949)">
<path opacity="0.1" d="M-60.8174 73.2908C92.3335 83.6299 213.667 48.4827 231.867 4.19717C251.795 -44.2944 107.224 -79.4634 32.9569 -133.982C-41.3104 -188.501 -289.73 -143.005 -607.246 -193.711C-924.762 -244.418 -1049.32 -52.6488 -1194.57 113.957C-1339.81 280.564 -923.587 305.726 -819.472 310.682C-715.357 315.639 -438.074 210.415 -394.3 117.371C-350.116 23.4567 -210.028 63.2176 -60.8174 73.2908Z" fill="#008EDD"/>
<path d="M824.774 450.067C824.774 544.748 742.046 622.9 545.802 636.244C364.599 648.565 128.4 577.154 128.4 482.473C128.4 387.792 307.131 299.219 507.023 299.219C706.914 299.219 824.774 355.385 824.774 450.067Z" fill="#0B2739"/>
</g>
</svg>
