<svg width="312" height="366" viewBox="0 0 312 366" fill="none" xmlns="http://www.w3.org/2000/svg">
<g clip-path="url(#clip0_113_7)">
<rect width="312" height="366" fill="#133A53"/>
<mask id="mask0_113_7" style="mask-type:alpha" maskUnits="userSpaceOnUse" x="0" y="0" width="312" height="366">
<rect width="312" height="366" fill="#D9D9D9"/>
</mask>
<g mask="url(#mask0_113_7)">
<path opacity="0.1" d="M-60.8174 73.2908C92.3335 83.6299 213.667 48.4827 231.867 4.19717C251.795 -44.2944 107.224 -79.4634 32.9569 -133.982C-41.3104 -188.501 -289.73 -143.005 -607.246 -193.711C-924.762 -244.418 -1049.32 -52.6488 -1194.57 113.957C-1339.81 280.564 -923.587 305.726 -819.472 310.682C-715.357 315.639 -438.074 210.415 -394.3 117.371C-350.116 23.4567 -210.028 63.2176 -60.8174 73.2908Z" fill="#008EDD"/>
<path d="M824.774 450.067C824.774 544.748 742.046 622.9 545.802 636.244C364.599 648.565 128.4 577.154 128.4 482.473C128.4 387.792 307.131 299.219 507.023 299.219C706.914 299.219 824.774 355.385 824.774 450.067Z" fill="#0B2739"/>
</g>
<g filter="url(#filter0_f_113_7)">
<ellipse cx="87.5" cy="193" rx="57.5" ry="149" fill="#019AF1"/>
</g>
<path opacity="0.5" d="M101.306 245.06C-79.8316 268.755 -83.4865 392.589 -270.444 394.133C-317.957 394.526 -327.83 388.376 -350.161 383.041C-372.492 377.705 -523.875 332.213 -537.118 346.254C-550.361 360.295 -437.927 385.427 -424.424 388.376C-410.922 391.325 -329.907 407.191 -261.875 408.033C-193.843 408.876 -52.7932 420.379 -33.8002 391.036C5.63318 330.114 135.423 330.583 149.067 364.558C159.641 390.892 78.8033 370.65 45.9332 408.609C20.6987 437.751 -20.2501 564.919 54.6545 551.81C117.233 540.859 40.084 512.918 78.8033 478.658C94.3187 464.93 133.651 443.802 189.68 425.163C305.749 386.551 312.253 364.592 399.487 352.151C517.634 335.302 635.002 356.644 744.84 383.041C822.141 401.618 900.638 397.503 965.814 385.427C1030.99 373.352 1069.16 369.141 1146.02 373.493C1222.88 377.846 1253.26 332.634 1231.71 299.358C1210.16 266.081 1128.1 272.681 1069.42 305.396C1028 328.486 983.73 354.819 900.638 366.473C832.346 376.051 721.989 368.439 726.404 354.538C727.854 349.972 729.779 346.254 789.762 351.028C849.744 355.802 922.969 343.446 978.537 319.155C1030.24 296.556 1090.89 240.388 1155.89 233.648C1193.8 229.716 1249.11 198.405 1212.49 182.961C1182.82 170.445 1131.48 215.816 982.951 287.845C834.424 359.874 743.754 324.419 745.359 298.937C748.994 241.229 880.124 255.411 930.239 202.618C968.009 162.829 953.09 116.688 881.683 106.158C790.574 92.7214 796.228 145.331 787.684 172.991C767.171 239.404 597.964 288.546 475.05 288.546C362.266 288.546 291.2 220.22 101.306 245.06Z" fill="#032941" fill-opacity="0.5"/>
<g filter="url(#filter1_f_113_7)">
<ellipse cx="77.5" cy="185" rx="33.5" ry="101" fill="#0B2739"/>
</g>
<g opacity="0.4">
<path opacity="0.7" d="M-15.0454 244.721C-10.1243 234.629 3.34971 236.339 4.92954 246.931C13.2373 239.982 24.5413 247.385 21.4906 258.164C18.4399 268.942 -4.25893 271 -4.25893 271C-4.25893 271 -19.9665 254.823 -15.0454 244.721Z" fill="#0B2739"/>
<path opacity="0.5" d="M-6.5493 283.632C-9.81797 269.391 5.41601 260.455 15.7866 270.032C18.5897 256.317 36.2703 254.947 42.0251 268.42C47.78 281.893 26.177 302 26.177 302C26.177 302 -3.29053 297.881 -6.5493 283.632Z" fill="white"/>
</g>
<g opacity="0.4">
<path opacity="0.7" d="M293.02 -2.87127C287.97 -13.5757 274.141 -11.7617 272.52 -0.528189C263.993 -7.89754 252.392 -0.0463533 255.523 11.3856C258.654 22.8175 281.95 25 281.95 25C281.95 25 298.071 7.84264 293.02 -2.87127Z" fill="#0B2739"/>
<path opacity="0.5" d="M325.576 26.9131C328.649 13.6664 314.329 5.35337 304.581 14.2628C301.946 1.50406 285.326 0.230003 279.916 12.7628C274.507 25.2956 294.814 44 294.814 44C294.814 44 322.513 40.1688 325.576 26.9131Z" fill="white"/>
</g>
</g>
<defs>
<filter id="filter0_f_113_7" x="-170" y="-156" width="515" height="698" filterUnits="userSpaceOnUse" color-interpolation-filters="sRGB">
<feFlood flood-opacity="0" result="BackgroundImageFix"/>
<feBlend mode="normal" in="SourceGraphic" in2="BackgroundImageFix" result="shape"/>
<feGaussianBlur stdDeviation="100" result="effect1_foregroundBlur_113_7"/>
</filter>
<filter id="filter1_f_113_7" x="-156" y="-116" width="467" height="602" filterUnits="userSpaceOnUse" color-interpolation-filters="sRGB">
<feFlood flood-opacity="0" result="BackgroundImageFix"/>
<feBlend mode="normal" in="SourceGraphic" in2="BackgroundImageFix" result="shape"/>
<feGaussianBlur stdDeviation="100" result="effect1_foregroundBlur_113_7"/>
</filter>
<clipPath id="clip0_113_7">
<rect width="312" height="366" fill="white"/>
</clipPath>
</defs>
</svg>
